<mxfile host="app.diagrams.net" modified="2024-05-23T08:52:08.301Z" agent="Mozilla/5.0 (Macintosh; Intel Mac OS X 10.15; rv:126.0) Gecko/20100101 Firefox/126.0" etag="dVYXg88y3UWLHi2VRn07" version="24.4.6" type="github">
  <diagram id="C5RBs43oDa-KdzZeNtuy" name="Page-1">
    <mxGraphModel dx="1592" dy="1057" grid="1" gridSize="10" guides="1" tooltips="1" connect="1" arrows="1" fold="1" page="1" pageScale="1" pageWidth="827" pageHeight="1169" math="0" shadow="0">
      <root>
        <mxCell id="WIyWlLk6GJQsqaUBKTNV-0" />
        <mxCell id="WIyWlLk6GJQsqaUBKTNV-1" parent="WIyWlLk6GJQsqaUBKTNV-0" />
        <mxCell id="WtMK0l1gfOa8kTumiYUG-23" style="edgeStyle=orthogonalEdgeStyle;rounded=0;orthogonalLoop=1;jettySize=auto;html=1;entryX=0.5;entryY=0;entryDx=0;entryDy=0;" edge="1" parent="WIyWlLk6GJQsqaUBKTNV-1" source="WtMK0l1gfOa8kTumiYUG-0" target="WtMK0l1gfOa8kTumiYUG-19">
          <mxGeometry relative="1" as="geometry" />
        </mxCell>
        <mxCell id="WtMK0l1gfOa8kTumiYUG-0" value="Start" style="rounded=1;whiteSpace=wrap;html=1;" vertex="1" parent="WIyWlLk6GJQsqaUBKTNV-1">
          <mxGeometry x="375" y="60" width="120" height="30" as="geometry" />
        </mxCell>
        <mxCell id="WtMK0l1gfOa8kTumiYUG-1" value="End" style="rounded=1;whiteSpace=wrap;html=1;" vertex="1" parent="WIyWlLk6GJQsqaUBKTNV-1">
          <mxGeometry x="380" y="800" width="120" height="40" as="geometry" />
        </mxCell>
        <mxCell id="WtMK0l1gfOa8kTumiYUG-33" style="edgeStyle=orthogonalEdgeStyle;rounded=0;orthogonalLoop=1;jettySize=auto;html=1;entryX=0.5;entryY=0;entryDx=0;entryDy=0;" edge="1" parent="WIyWlLk6GJQsqaUBKTNV-1" source="WtMK0l1gfOa8kTumiYUG-2" target="WtMK0l1gfOa8kTumiYUG-4">
          <mxGeometry relative="1" as="geometry" />
        </mxCell>
        <mxCell id="WtMK0l1gfOa8kTumiYUG-2" value="Input Temperature Units into Variable &#39;i_tmp&#39; " style="shape=parallelogram;perimeter=parallelogramPerimeter;whiteSpace=wrap;html=1;fixedSize=1;" vertex="1" parent="WIyWlLk6GJQsqaUBKTNV-1">
          <mxGeometry x="280" y="330" width="290" height="60" as="geometry" />
        </mxCell>
        <mxCell id="WtMK0l1gfOa8kTumiYUG-3" value="Input C for Celsius or F for Fahrenheit into Variable &#39;scale&#39; " style="shape=parallelogram;perimeter=parallelogramPerimeter;whiteSpace=wrap;html=1;fixedSize=1;" vertex="1" parent="WIyWlLk6GJQsqaUBKTNV-1">
          <mxGeometry x="300" y="240" width="270" height="50" as="geometry" />
        </mxCell>
        <mxCell id="WtMK0l1gfOa8kTumiYUG-9" style="edgeStyle=orthogonalEdgeStyle;rounded=0;orthogonalLoop=1;jettySize=auto;html=1;exitX=1;exitY=0.5;exitDx=0;exitDy=0;entryX=0;entryY=0.5;entryDx=0;entryDy=0;" edge="1" parent="WIyWlLk6GJQsqaUBKTNV-1" source="WtMK0l1gfOa8kTumiYUG-4" target="WtMK0l1gfOa8kTumiYUG-7">
          <mxGeometry relative="1" as="geometry" />
        </mxCell>
        <mxCell id="WtMK0l1gfOa8kTumiYUG-10" style="edgeStyle=orthogonalEdgeStyle;rounded=0;orthogonalLoop=1;jettySize=auto;html=1;exitX=0;exitY=0.5;exitDx=0;exitDy=0;" edge="1" parent="WIyWlLk6GJQsqaUBKTNV-1" source="WtMK0l1gfOa8kTumiYUG-4" target="WtMK0l1gfOa8kTumiYUG-6">
          <mxGeometry relative="1" as="geometry" />
        </mxCell>
        <mxCell id="WtMK0l1gfOa8kTumiYUG-4" value="Scale Choice C/F" style="rhombus;whiteSpace=wrap;html=1;" vertex="1" parent="WIyWlLk6GJQsqaUBKTNV-1">
          <mxGeometry x="335" y="430" width="180" height="160" as="geometry" />
        </mxCell>
        <mxCell id="WtMK0l1gfOa8kTumiYUG-12" style="edgeStyle=orthogonalEdgeStyle;rounded=0;orthogonalLoop=1;jettySize=auto;html=1;exitX=0.25;exitY=1;exitDx=0;exitDy=0;entryX=0.002;entryY=0.671;entryDx=0;entryDy=0;entryPerimeter=0;" edge="1" parent="WIyWlLk6GJQsqaUBKTNV-1" source="WtMK0l1gfOa8kTumiYUG-6" target="WtMK0l1gfOa8kTumiYUG-8">
          <mxGeometry relative="1" as="geometry">
            <mxPoint x="140" y="720" as="targetPoint" />
          </mxGeometry>
        </mxCell>
        <mxCell id="WtMK0l1gfOa8kTumiYUG-6" value="&lt;div&gt;Convert Celsius to Fahrenheit&lt;/div&gt;&lt;div&gt;&lt;br&gt;&lt;/div&gt;&lt;div&gt;&lt;span lang=&quot;en&quot; class=&quot;BxUVEf ILfuVd&quot;&gt;&lt;span class=&quot;hgKElc&quot;&gt;f_tmp = (9/5 × i_tmp) + 32&lt;/span&gt;&lt;/span&gt;&lt;/div&gt;" style="rounded=0;whiteSpace=wrap;html=1;" vertex="1" parent="WIyWlLk6GJQsqaUBKTNV-1">
          <mxGeometry x="60" y="470" width="200" height="80" as="geometry" />
        </mxCell>
        <mxCell id="WtMK0l1gfOa8kTumiYUG-13" style="edgeStyle=orthogonalEdgeStyle;rounded=0;orthogonalLoop=1;jettySize=auto;html=1;exitX=0.75;exitY=1;exitDx=0;exitDy=0;entryX=0.75;entryY=0;entryDx=0;entryDy=0;" edge="1" parent="WIyWlLk6GJQsqaUBKTNV-1" source="WtMK0l1gfOa8kTumiYUG-7" target="WtMK0l1gfOa8kTumiYUG-8">
          <mxGeometry relative="1" as="geometry">
            <mxPoint x="743" y="750" as="targetPoint" />
          </mxGeometry>
        </mxCell>
        <mxCell id="WtMK0l1gfOa8kTumiYUG-7" value="&lt;div&gt;Convert Fahrenheit to Celsius&lt;/div&gt;&lt;div&gt;&lt;br&gt;&lt;/div&gt;&lt;div&gt;f_tmp = (i_tmp - 32) × 5/9&lt;/div&gt;" style="rounded=0;whiteSpace=wrap;html=1;" vertex="1" parent="WIyWlLk6GJQsqaUBKTNV-1">
          <mxGeometry x="590" y="470" width="190" height="80" as="geometry" />
        </mxCell>
        <mxCell id="WtMK0l1gfOa8kTumiYUG-14" style="edgeStyle=orthogonalEdgeStyle;rounded=0;orthogonalLoop=1;jettySize=auto;html=1;" edge="1" parent="WIyWlLk6GJQsqaUBKTNV-1" source="WtMK0l1gfOa8kTumiYUG-8" target="WtMK0l1gfOa8kTumiYUG-1">
          <mxGeometry relative="1" as="geometry" />
        </mxCell>
        <mxCell id="WtMK0l1gfOa8kTumiYUG-8" value="Output: The temperature in Celsius/Fahrenheit is (the converted temperature) " style="shape=parallelogram;perimeter=parallelogramPerimeter;whiteSpace=wrap;html=1;fixedSize=1;" vertex="1" parent="WIyWlLk6GJQsqaUBKTNV-1">
          <mxGeometry x="200" y="660" width="480" height="85" as="geometry" />
        </mxCell>
        <mxCell id="WtMK0l1gfOa8kTumiYUG-31" style="edgeStyle=orthogonalEdgeStyle;rounded=0;orthogonalLoop=1;jettySize=auto;html=1;entryX=0.5;entryY=0;entryDx=0;entryDy=0;" edge="1" parent="WIyWlLk6GJQsqaUBKTNV-1" source="WtMK0l1gfOa8kTumiYUG-19" target="WtMK0l1gfOa8kTumiYUG-3">
          <mxGeometry relative="1" as="geometry" />
        </mxCell>
        <mxCell id="WtMK0l1gfOa8kTumiYUG-19" value="Declare Variables &#39;i_tmp&#39;, &#39;scale&#39;, and &#39;f_tmp&#39;" style="rounded=0;whiteSpace=wrap;html=1;" vertex="1" parent="WIyWlLk6GJQsqaUBKTNV-1">
          <mxGeometry x="375" y="130" width="120" height="60" as="geometry" />
        </mxCell>
        <mxCell id="WtMK0l1gfOa8kTumiYUG-25" value="C" style="text;html=1;align=center;verticalAlign=middle;resizable=0;points=[];autosize=1;strokeColor=none;fillColor=none;" vertex="1" parent="WIyWlLk6GJQsqaUBKTNV-1">
          <mxGeometry x="290" y="470" width="30" height="30" as="geometry" />
        </mxCell>
        <mxCell id="WtMK0l1gfOa8kTumiYUG-26" value="F" style="text;html=1;align=center;verticalAlign=middle;resizable=0;points=[];autosize=1;strokeColor=none;fillColor=none;" vertex="1" parent="WIyWlLk6GJQsqaUBKTNV-1">
          <mxGeometry x="540" y="470" width="30" height="30" as="geometry" />
        </mxCell>
        <mxCell id="WtMK0l1gfOa8kTumiYUG-32" style="edgeStyle=orthogonalEdgeStyle;rounded=0;orthogonalLoop=1;jettySize=auto;html=1;entryX=0.534;entryY=0;entryDx=0;entryDy=0;entryPerimeter=0;" edge="1" parent="WIyWlLk6GJQsqaUBKTNV-1" source="WtMK0l1gfOa8kTumiYUG-3" target="WtMK0l1gfOa8kTumiYUG-2">
          <mxGeometry relative="1" as="geometry" />
        </mxCell>
        <mxCell id="WtMK0l1gfOa8kTumiYUG-34" value="&lt;b&gt;&lt;font style=&quot;font-size: 18px;&quot;&gt;Celsius and Fahrenheit Temperature converter&lt;/font&gt;&lt;/b&gt;" style="text;html=1;align=center;verticalAlign=middle;whiteSpace=wrap;rounded=0;" vertex="1" parent="WIyWlLk6GJQsqaUBKTNV-1">
          <mxGeometry x="50" y="70" width="130" height="90" as="geometry" />
        </mxCell>
      </root>
    </mxGraphModel>
  </diagram>
</mxfile>
